<svg xmlns="http://www.w3.org/2000/svg" viewBox="0 0 64 64">
  <defs>
    <linearGradient id="bg" x1="10" y1="6" x2="54" y2="58" gradientUnits="userSpaceOnUse">
      <stop offset="0" stop-color="#ff8aa1"/>
      <stop offset="0.52" stop-color="#f25f7c"/>
      <stop offset="1" stop-color="#6c8cff"/>
    </linearGradient>
    <linearGradient id="page" x1="19" y1="14" x2="45" y2="51" gradientUnits="userSpaceOnUse">
      <stop offset="0" stop-color="#ffffff"/>
      <stop offset="1" stop-color="#f7fbff"/>
    </linearGradient>
  </defs>
  <rect width="64" height="64" rx="16" fill="url(#bg)"/>
  <path d="M18 15.5c0-2 1.6-3.5 3.5-3.5h21c3 0 5.5 2.5 5.5 5.5V49c0 1.7-1.3 3-3 3H21.5A3.5 3.5 0 0 1 18 48.5v-33Z" fill="#29324a" opacity=".18"/>
  <path d="M16 15.5c0-2 1.6-3.5 3.5-3.5H41c3.9 0 7 3.1 7 7v29.5c0 1.9-1.6 3.5-3.5 3.5h-25A3.5 3.5 0 0 1 16 48.5v-33Z" fill="url(#page)"/>
  <path d="M22 12h4v40h-4V12Z" fill="#ffc0cc"/>
  <path d="M31 22h10" stroke="#9aa8c7" stroke-width="3" stroke-linecap="round"/>
  <path d="M31 31h8" stroke="#c3ccdf" stroke-width="3" stroke-linecap="round"/>
  <path d="M35.8 43.8c-5.6-3.8-9.1-6.7-9.1-10.6 0-2.7 2-4.7 4.6-4.7 1.6 0 3.1.8 4.1 2.1 1-1.3 2.5-2.1 4.1-2.1 2.6 0 4.6 2 4.6 4.7 0 3.9-3.5 6.8-9.1 10.6l-.6.4-.6-.4Z" fill="#f04f70"/>
  <path d="M44.8 26.6c-3.6-2.5-5.9-4.3-5.9-6.8 0-1.8 1.3-3.1 3-3.1 1 0 2 .5 2.7 1.4.7-.9 1.7-1.4 2.7-1.4 1.7 0 3 1.3 3 3.1 0 2.5-2.3 4.3-5.9 6.8l-.4.3-.4-.3Z" fill="#ffffff" opacity=".95"/>
</svg>
